<svg xmlns="http://www.w3.org/2000/svg" viewBox="0 0 512 512">
  <!-- Sage green background -->
  <defs>
    <linearGradient id="bg" x1="0" y1="0" x2="1" y2="1">
      <stop offset="0%" stop-color="#f5c4c0"/>
      <stop offset="100%" stop-color="#e8a8a3"/>
    </linearGradient>
  </defs>
  <rect width="512" height="512" rx="112" fill="url(#bg)"/>

  <!-- Clock face -->
  <circle cx="256" cy="256" r="150" fill="white" opacity="0.95"/>

  <!-- Hour markers -->
  <circle cx="256" cy="130" r="8" fill="#6a9e82"/>
  <circle cx="382" cy="256" r="8" fill="#6a9e82"/>
  <circle cx="256" cy="382" r="8" fill="#6a9e82"/>
  <circle cx="130" cy="256" r="8" fill="#6a9e82"/>

  <!-- Small hour markers -->
  <circle cx="319" cy="147" r="5" fill="#9bc4b0"/>
  <circle cx="365" cy="193" r="5" fill="#9bc4b0"/>
  <circle cx="365" cy="319" r="5" fill="#9bc4b0"/>
  <circle cx="319" cy="365" r="5" fill="#9bc4b0"/>
  <circle cx="193" cy="365" r="5" fill="#9bc4b0"/>
  <circle cx="147" cy="319" r="5" fill="#9bc4b0"/>
  <circle cx="147" cy="193" r="5" fill="#9bc4b0"/>
  <circle cx="193" cy="147" r="5" fill="#9bc4b0"/>

  <!-- Hour hand -->
  <line x1="256" y1="256" x2="256" y2="175" stroke="#3a5a48" stroke-width="12" stroke-linecap="round"/>

  <!-- Minute hand -->
  <line x1="256" y1="256" x2="320" y2="200" stroke="#3a5a48" stroke-width="8" stroke-linecap="round"/>

  <!-- Center dot -->
  <circle cx="256" cy="256" r="12" fill="#6a9e82"/>
  <circle cx="256" cy="256" r="6" fill="white"/>
</svg>
